<?xml version="1.0" standalone="no"?>
<!DOCTYPE svg PUBLIC "-//W3C//DTD SVG 20010904//EN"
 "http://www.w3.org/TR/2001/REC-SVG-20010904/DTD/svg10.dtd">
<svg version="1.0" xmlns="http://www.w3.org/2000/svg"
 width="925.000000pt" height="925.000000pt" viewBox="0 0 925.000000 925.000000"
 preserveAspectRatio="xMidYMid meet">
<metadata>
Created by potrace 1.11, written by Peter Selinger 2001-2013
</metadata>
<g transform="translate(0.000000,925.000000) scale(0.100000,-0.100000)"
fill="#000000" stroke="none">
<path d="M4288 9145 c-1 -2 -39 -6 -83 -10 -44 -3 -91 -8 -105 -10 -14 -2 -50
-6 -81 -10 -31 -3 -65 -7 -75 -9 -11 -2 -39 -7 -64 -10 -25 -3 -56 -8 -70 -11
-14 -3 -38 -7 -55 -10 -65 -11 -95 -18 -230 -52 -77 -19 -148 -36 -157 -38
-30 -6 -362 -117 -403 -135 -22 -10 -85 -36 -140 -60 -388 -165 -762 -394
-1105 -679 -105 -87 -406 -379 -490 -476 -31 -35 -144 -173 -177 -215 -226
-289 -451 -675 -588 -1010 -26 -63 -51 -124 -55 -135 -55 -130 -160 -488 -194
-660 -4 -16 -9 -41 -12 -55 -15 -74 -43 -244 -49 -305 -4 -38 -9 -78 -11 -87
-26 -144 -26 -812 0 -968 3 -14 7 -49 10 -78 9 -76 53 -337 70 -407 2 -11 12
-51 21 -90 109 -466 326 -964 601 -1380 157 -238 176 -263 339 -455 449 -528
1035 -958 1655 -1217 47 -19 100 -42 118 -50 103 -45 531 -175 654 -198 13 -3
34 -7 48 -10 64 -14 223 -43 270 -49 19 -3 53 -7 75 -10 52 -7 120 -14 230
-23 118 -10 617 -10 725 1 154 14 170 16 198 20 15 3 45 7 67 11 23 3 50 7 60
9 11 2 43 7 70 10 76 11 306 63 440 101 539 152 1021 391 1480 735 178 133
293 235 470 413 197 199 263 274 426 487 68 90 191 275 277 420 76 128 192
362 249 500 19 47 40 99 48 115 41 93 146 423 176 555 6 25 12 52 14 60 2 8
10 44 19 80 8 36 17 81 20 100 3 19 8 46 10 60 7 35 34 227 40 278 29 234 29
783 1 982 -2 14 -6 52 -10 85 -3 33 -13 98 -21 145 -8 47 -17 101 -20 120 -11
69 -56 257 -89 375 -174 619 -471 1178 -894 1680 -125 148 -421 441 -557 550
-27 21 -51 42 -54 45 -35 41 -429 310 -565 386 -38 21 -83 47 -100 56 -134 77
-461 224 -610 274 -22 7 -60 21 -85 30 -43 16 -142 46 -205 64 -122 34 -195
53 -230 60 -22 4 -74 15 -115 23 -41 9 -91 18 -110 21 -19 3 -44 7 -55 10 -11
2 -45 7 -75 11 -30 4 -62 9 -70 10 -8 1 -46 6 -85 10 -38 4 -83 9 -100 12 -33
6 -681 14 -687 8z"/>
</g>
</svg>
